<svg xmlns="http://www.w3.org/2000/svg" viewBox="0 0 512 512" role="img" aria-labelledby="title desc">
  <title id="title">셀렉상회 343</title>
  <desc id="desc">파란색 바탕의 흰색 옷걸이와 숫자 343 아이콘</desc>
  <rect width="512" height="512" rx="112" fill="#356AE6"/>
  <rect x="18" y="18" width="476" height="476" rx="96" fill="none" stroke="#FFFFFF" stroke-opacity=".16" stroke-width="4"/>
  <path d="M211 132c0-31 20-52 49-52 28 0 48 19 48 45 0 25-17 37-35 48-10 6-17 15-17 28" fill="none" stroke="#FFFFFF" stroke-width="22" stroke-linecap="round"/>
  <path d="M251 204 105 309c-15 11-7 35 12 35h278c19 0 27-24 12-35L261 204a9 9 0 0 0-10 0Z" fill="none" stroke="#FFFFFF" stroke-width="22" stroke-linejoin="round"/>
  <path d="M151 344h210" stroke="#FFFFFF" stroke-width="12" stroke-linecap="round" opacity=".72"/>
  <text x="256" y="438" text-anchor="middle" fill="#FFFFFF" font-family="Arial, Helvetica, sans-serif" font-size="78" font-weight="800" letter-spacing="9">343</text>
</svg>
